{
    "asset" : {
        "generator" : "Khronos glTF Blender I/O v1.4.40",
        "version" : "2.0"
    },
    "scene" : 0,
    "scenes" : [
        {
            "name" : "Scene",
            "nodes" : [
                0
            ]
        }
    ],
    "nodes" : [
        {
            "mesh" : 0,
            "name" : "Body"
        }
    ],
    "materials" : [
        {
            "doubleSided" : true,
            "name" : "Brushed Metal",
            "pbrMetallicRoughness" : {
                "baseColorFactor" : [
                    0.06680677086114883,
                    0.06680677086114883,
                    0.06680677086114883,
                    1
                ],
                "roughnessFactor" : 0.7255638837814331
            }
        },
        {
            "doubleSided" : true,
            "name" : "Grip",
            "pbrMetallicRoughness" : {
                "baseColorFactor" : [
                    0,
                    0,
                    0,
                    1
                ],
                "metallicFactor" : 0,
                "roughnessFactor" : 0.9736841917037964
            }
        }
    ],
    "meshes" : [
        {
            "name" : "Cube.001",
            "primitives" : [
                {
                    "attributes" : {
                        "POSITION" : 0,
                        "NORMAL" : 1,
                        "TEXCOORD_0" : 2
                    },
                    "indices" : 3,
                    "material" : 0
                },
                {
                    "attributes" : {
                        "POSITION" : 4,
                        "NORMAL" : 5,
                        "TEXCOORD_0" : 6
                    },
                    "indices" : 7,
                    "material" : 1
                }
            ]
        }
    ],
    "accessors" : [
        {
            "bufferView" : 0,
            "componentType" : 5126,
            "count" : 8763,
            "max" : [
                0.033414971083402634,
                1.0167564153671265,
                0.0328323170542717
            ],
            "min" : [
                -0.0334177166223526,
                -1.0301357507705688,
                -0.5315628051757812
            ],
            "type" : "VEC3"
        },
        {
            "bufferView" : 1,
            "componentType" : 5126,
            "count" : 8763,
            "type" : "VEC3"
        },
        {
            "bufferView" : 2,
            "componentType" : 5126,
            "count" : 8763,
            "type" : "VEC2"
        },
        {
            "bufferView" : 3,
            "componentType" : 5123,
            "count" : 40404,
            "type" : "SCALAR"
        },
        {
            "bufferView" : 4,
            "componentType" : 5126,
            "count" : 798,
            "max" : [
                0.02423100546002388,
                0.033441562205553055,
                0.02911173179745674
            ],
            "min" : [
                -0.02219613641500473,
                -0.07467038929462433,
                -0.027692509815096855
            ],
            "type" : "VEC3"
        },
        {
            "bufferView" : 5,
            "componentType" : 5126,
            "count" : 798,
            "type" : "VEC3"
        },
        {
            "bufferView" : 6,
            "componentType" : 5126,
            "count" : 798,
            "type" : "VEC2"
        },
        {
            "bufferView" : 7,
            "componentType" : 5123,
            "count" : 4554,
            "type" : "SCALAR"
        }
    ],
    "bufferViews" : [
        {
            "buffer" : 0,
            "byteLength" : 105156,
            "byteOffset" : 0
        },
        {
            "buffer" : 0,
            "byteLength" : 105156,
            "byteOffset" : 105156
        },
        {
            "buffer" : 0,
            "byteLength" : 70104,
            "byteOffset" : 210312
        },
        {
            "buffer" : 0,
            "byteLength" : 80808,
            "byteOffset" : 280416
        },
        {
            "buffer" : 0,
            "byteLength" : 9576,
            "byteOffset" : 361224
        },
        {
            "buffer" : 0,
            "byteLength" : 9576,
            "byteOffset" : 370800
        },
        {
            "buffer" : 0,
            "byteLength" : 6384,
            "byteOffset" : 380376
        },
        {
            "buffer" : 0,
            "byteLength" : 9108,
            "byteOffset" : 386760
        }
    ],
    "buffers" : [
        {
            "byteLength" : 395868,
            "uri" : "data:application/octet-stream;base64,"
        }
    ]
}
